# xmcd CD database file
#
# Track frame offsets:
#	150
#	21750
#	41757
#
# Disc length: 784 seconds
#
# Revision: 0
# Processed by: cddbd v1.5PL3 Copyright (c) Steve Scherf et al.
# Submitted via: CDex 1.50Beta7
#
DISCID=1d030e03
DTITLE=Craysia - Are you juliet？
DYEAR=1999
DGENRE=rock_pop
TTITLE0=OH! MYジュリエット
TTITLE1=BE FOREVER
TTITLE2=サヨナラ愛しい人
EXTD=YEAR: 1999
EXTT0=
EXTT1=
EXTT2=
PLAYORDER=
